<?xml version="1.0" encoding="utf-8"?>
<!-- Generator: Adobe Illustrator 24.1.1, SVG Export Plug-In . SVG Version: 6.00 Build 0)  -->
<svg version="1.1" id="Layer_1" xmlns="http://www.w3.org/2000/svg" xmlns:xlink="http://www.w3.org/1999/xlink" x="0px" y="0px"
	 viewBox="0 0 512 512" style="enable-background:new 0 0 512 512;" xml:space="preserve">
<g id="XMLID_1_">
	<path id="XMLID_3_" d="M260.6,220.2v87.3h145c-5.6,37.2-43.7,110.6-145,110.6c-87.3,0-158-72.5-158-161.7s71.5-161.7,158-161.7
		c49.2,0,82.7,21.4,102.2,39l69.7-66.9C387.9,25.1,330.3,0,261.6,0C119.4,0.9,5.1,115.2,5.1,256.5S119.4,512,260.6,512
		c147.7,0,246.2-104.1,246.2-250c0-16.7-1.9-29.7-3.7-42.7L260.6,220.2L260.6,220.2z"/>
</g>
</svg>
