<?xml version="1.0" encoding="utf-8"?>
<!-- Generator: Adobe Illustrator 15.0.0, SVG Export Plug-In . SVG Version: 6.00 Build 0)  -->
<!DOCTYPE svg PUBLIC "-//W3C//DTD SVG 1.1//EN" "http://www.w3.org/Graphics/SVG/1.1/DTD/svg11.dtd">
<svg version="1.1" id="Layer_1" xmlns="http://www.w3.org/2000/svg" xmlns:xlink="http://www.w3.org/1999/xlink" x="0px" y="0px"
	 width="725.616px" height="289.368px" viewBox="0 0 725.616 289.368" enable-background="new 0 0 725.616 289.368"
	 xml:space="preserve">
<g>
	<polygon points="0,0 0,33.408 87.912,33.408 87.912,234.504 127.152,234.504 127.152,33.408 725.616,33.408 725.616,0 	"/>
	<polygon points="189.648,52.056 189.648,234.504 228.888,234.504 228.888,158.832 368.784,158.832 368.784,234.504 
		408.024,234.504 408.024,52.056 368.784,52.056 368.784,128.88 228.888,128.88 228.888,52.056 	"/>
	<polygon points="485.136,234.504 560.952,161.28 638.784,234.504 691.488,234.504 587.017,136.152 673.992,52.056 621.937,52.056 
		560.664,111.312 497.736,52.056 444.96,52.056 534.601,136.44 433.152,234.504 	"/>
	<rect y="255.96" width="725.616" height="33.408"/>
	<path d="M686.232,210.816c4.104,0,7.56-1.44,10.368-4.248c2.88-2.88,4.319-6.336,4.319-10.368c0-4.104-1.439-7.561-4.319-10.44
		c-2.809-2.808-6.265-4.248-10.368-4.248c-4.032,0-7.488,1.44-10.368,4.248c-2.808,2.88-4.248,6.336-4.248,10.44
		c0,4.032,1.44,7.488,4.248,10.368C678.744,209.376,682.2,210.816,686.232,210.816z M677.017,186.912
		c2.592-2.521,5.615-3.816,9.216-3.816c3.6,0,6.695,1.296,9.216,3.816c2.592,2.592,3.815,5.688,3.815,9.288
		c0,3.528-1.224,6.624-3.815,9.144c-2.521,2.592-5.616,3.889-9.216,3.889c-3.601,0-6.624-1.297-9.216-3.889
		c-2.521-2.52-3.816-5.615-3.816-9.144C673.2,192.599,674.496,189.504,677.017,186.912z"/>
	<path d="M682.848,196.704h1.297c0.863,0,1.584,0.072,2.088,0.216c0.359,0.072,0.72,0.216,0.936,0.36
		c0.576,0.432,1.512,1.655,2.664,3.672l1.512,2.592h2.521l-1.584-2.88c-0.288-0.504-0.72-1.152-1.296-1.872
		c-0.504-0.792-0.937-1.296-1.152-1.512c-0.288-0.216-0.72-0.504-1.368-0.792c1.368-0.216,2.448-0.648,3.168-1.225
		c1.009-0.863,1.513-1.943,1.513-3.239c0-1.225-0.433-2.232-1.44-3.024c-0.936-0.864-2.52-1.224-4.752-1.224h-0.72h-5.4v15.768
		h2.016V196.704z M682.848,189.431h3.024c0.145,0,0.216,0,0.36,0c2.088,0,3.384,0.288,3.96,0.792
		c0.576,0.576,0.864,1.225,0.864,1.944c0,0.504-0.217,1.008-0.505,1.512c-0.359,0.433-0.792,0.792-1.296,0.937
		c-0.576,0.144-1.584,0.216-3.023,0.288c-0.433,0-0.864,0-1.368,0h-2.017V189.431z"/>
</g>
</svg>
