<svg width="468" height="50" viewBox="0 0 468 50" fill="none" xmlns="http://www.w3.org/2000/svg">
<path d="M423.864 13.2708V38.8426C423.864 44.9506 428.884 50 434.994 50C440.015 50 443.949 46.9866 445.37 42.6703L446.542 44.7064C448.633 48.1269 452.317 50 456.082 50C462.192 50 467.045 45.2765 467.045 39.25C467.045 37.214 466.544 35.2594 465.372 33.4678L461.02 26.7082C464.2 24.3465 466.124 20.6003 466.124 16.0397C466.124 7.6515 459.262 1.13636 450.477 1.13636H435.999C428.132 1.13636 423.864 5.28977 423.864 13.2708Z"/>
<path d="M421.591 40.6368C421.591 35.9559 418.568 32.4247 414.402 31.6036C416.28 30.3718 417.424 28.3186 417.424 25.6087C417.424 22.8985 416.363 20.8456 414.402 19.6137C418.651 18.7925 421.591 15.3434 421.591 10.5803C421.591 5.32456 417.344 1.13636 412.197 1.13636H395.043C387.202 1.13636 382.955 5.32456 382.955 13.2904V37.8447C382.955 45.8927 387.202 49.9988 395.043 49.9988H412.197C417.344 50.0808 421.591 45.8925 421.591 40.6368Z"/>
<path d="M369.604 39.0056V22.1477C375.064 21.9034 379.545 17.3428 379.545 11.642C379.545 5.77839 374.819 1.13636 369.035 1.13636H346.874C341.088 1.13636 336.364 5.69696 336.364 11.642C336.364 17.3428 340.845 21.8219 346.302 22.1477V39.0056C346.302 45.0321 351.437 50 357.792 50C364.554 50 369.604 45.0321 369.604 39.0056Z"/>
<path d="M293.182 13.2708V38.8426C293.182 44.9506 298.203 50 304.312 50C309.333 50 313.267 46.9866 314.688 42.6703L315.86 44.7064C317.954 48.1269 321.635 50 325.4 50C331.51 50 336.364 45.2765 336.364 39.25C336.364 37.214 335.862 35.2594 334.69 33.4678L330.338 26.7082C333.518 24.3465 335.442 20.6003 335.442 16.0397C335.442 7.6515 328.581 1.13636 319.795 1.13636H305.317C297.534 1.13636 293.182 5.28977 293.182 13.2708Z"/>
<path d="M266.98 40.3693C269.788 46.1132 273.75 48.8636 278.622 48.8636C287.375 48.8636 293.566 41.0165 289.769 32.1983L279.613 8.89902C277.136 3.1551 273.419 0 267.062 0C260.786 0 257.072 3.1551 254.512 8.89902L244.356 32.1983C240.473 41.0165 246.75 48.8636 255.42 48.8636C260.209 48.8636 264.171 46.1132 266.98 40.3693Z"/>
<path d="M238.904 39.0056V22.1477C244.373 21.9034 248.864 17.3428 248.864 11.642C248.864 5.77839 244.13 1.13636 238.332 1.13636H216.212C210.416 1.13636 205.682 5.69696 205.682 11.642C205.682 17.3428 210.171 21.8219 215.64 22.1477V39.0056C215.64 45.0321 220.783 50 227.15 50C233.762 50 238.904 45.0321 238.904 39.0056Z"/>
<path d="M205.682 34.0459C205.682 29.1117 203.191 25.6577 199.454 22.3684L196.382 19.6546C200.866 18.9967 203.855 16.0362 203.855 11.6776C203.855 4.35855 197.96 0 185.505 0C173.299 0 166.158 6.08551 166.158 15.7072C166.158 20.6414 168.732 24.0131 172.469 27.3849L175.458 30.0987H175.375C169.812 30.0987 165.909 33.3059 165.909 38.3223C165.909 45.5591 172.054 50 185.173 50C198.043 50 205.682 43.8322 205.682 34.0459Z"/>
<path d="M163.636 37.9232C163.636 35.6544 162.991 33.4664 161.619 31.5217L156.453 24.3097L161.619 17.0979C162.991 15.2341 163.636 12.9652 163.636 10.6963C163.636 4.6999 158.713 0.081033 152.901 0.081033C149.511 0.081033 146.121 1.78272 144.023 4.6999L141.521 8.26534C140.552 3.48442 136.436 0 131.189 0C125.136 0 120.455 4.86197 120.455 10.8584V38.0043C120.455 44.0008 125.217 48.8627 131.189 48.8627C136.355 48.8627 140.391 45.6215 141.44 40.9216L143.7 44.1628C145.799 47.2422 149.269 48.8627 152.659 48.8627C158.713 48.9437 163.636 43.9198 163.636 37.9232Z"/>
<path d="M115.909 35.4344C115.909 30.2566 113.357 26.6162 108.254 24.432C113.357 22.2476 115.909 18.688 115.909 13.4294C115.909 5.58211 109.45 0 99.0829 0C85.2073 0 75 10.4361 75 24.432C75 38.4276 85.2073 48.8636 99.0829 48.8636C109.45 48.8636 115.909 43.2815 115.909 35.4344Z"/>
<path d="M58.5639 0C51.9123 0 46.5909 5.35715 46.5909 11.6883V37.1754C46.5909 43.5878 51.9123 48.8636 58.4806 48.8636C65.2153 48.8636 70.4536 43.5065 70.4536 37.1754V11.6883C70.5366 5.35715 65.2153 0 58.5639 0Z"/>
<path d="M44.3182 37.9232C44.3182 35.6544 43.6568 33.4664 42.2512 31.5217L36.9595 24.3097L42.2512 17.0979C43.6568 15.2341 44.3182 12.9652 44.3182 10.6963C44.3182 4.6999 39.2744 0.081033 33.3213 0.081033C29.8486 0.081033 26.376 1.78272 24.2263 4.6999L21.5803 8.26534C20.5881 3.48442 16.3713 0 10.9969 0C4.79563 0 0 4.86197 0 10.8584V38.0043C0 44.0008 4.87831 48.8627 10.9969 48.8627C16.2886 48.8627 20.4228 45.6215 21.4976 40.9216L23.8127 44.1628C25.9624 47.2422 29.518 48.8627 32.9905 48.8627C39.2744 48.9437 44.3182 43.9198 44.3182 37.9232Z"/>
</svg>
